#!OML:ASF X:\für Bonn\!DataBase\2005_08_12_Daniel\c3d\Daniel.ASF
:FULLY-SPECIFIED
:DEGREES
281
root 18.2091 2.32209 0.327774 -1717.46 259.647 151.746
lowerback 40.3743 -3.23905 0.290761
upperback 9.2249 -5.67613 -3.74005
thorax -9.56443 -3.2468 -1.66538
lowerneck 6.11698 2.69544 -2.35212
upperneck -3.32451 3.28892 -1.73926
head -2.09983 1.70601 -0.268539
rclavicle -2.70347e-014 2.28602e-015
rhumerus -393.29 32.2134 285.228
rradius 88.7442
rwrist -1.70802
rhand -45.4231 757.687
rfingers 7.12502
rthumb -18.1907 728.518
lclavicle -2.70347e-014 2.28602e-015
lhumerus -540.477 187.506 -490.121
lradius 104.535
lwrist 17.2836
lhand -25.3267 -732.775
lfingers 7.12502
lthumb 1.196 17.2012
rfemur -583.983 -176.008 549.524
rtibia 74.3294
rfoot -0.248882 -3.54821
rtoes 27.8222
lfemur -7.32299 746.953 -13.8854
ltibia 91.3226
lfoot 22.801 471.667
ltoes -33.3272
282
root 18.2158 2.32636 0.332412 -1717.04 259.575 151.363
lowerback 40.349 -3.20763 0.210007
upperback 9.08249 -5.65911 -3.74923
thorax -9.7116 -3.22647 -1.63644
lowerneck 5.54648 2.71017 -2.42903
upperneck -3.39843 3.32346 -1.63569
head -2.02391 1.71929 -0.215807
rclavicle -1.51076e-014 -9.6013e-014
rhumerus -392.101 32.0016 286.494
rradius 90.5924
rwrist -1.90363
rhand -45.5304 757.711
rfingers 7.12502
rthumb -18.294 728.552
lclavicle -1.51076e-014 -9.6013e-014
lhumerus -539.613 187.233 -490.864
lradius 106.246
lwrist 18.1136
lhand -26.1853 -733.758
lfingers 7.12502
lthumb 0.366746 16.2216
rfemur -584.166 -175.861 549.461
rtibia 74.1828
rfoot -0.3127 -3.75793
rtoes 28.4443
lfemur -7.12451 747.746 -13.0956
ltibia 91.6615
lfoot 23.8085 471.033
ltoes -33.3341
283
root 18.2226 2.3274 0.337678 -1716.68 259.495 151.008
lowerback 40.3477 -3.17362 0.121624
upperback 8.95894 -5.64389 -3.75259
thorax -9.84391 -3.2086 -1.59639
lowerneck 4.9627 2.73096 -2.57834
upperneck -3.45258 3.36417 -1.48545
head -1.94199 1.73521 -0.136222
rclavicle 1.82882e-014 -3.2054e-014
rhumerus -390.862 31.7816 287.823
rradius 92.4203
rwrist -1.98143
rhand -45.6661 757.89
rfingers 7.12502
rthumb -18.4245 728.743
lclavicle 1.82882e-014 -3.2054e-014
lhumerus -538.691 186.853 -491.553
lradius 107.875
lwrist 18.82
lhand -26.8038 -734.56
lfingers 7.12502
lthumb -0.230609 15.4199
rfemur -584.289 -175.709 549.39
rtibia 74.0933
rfoot -0.364769 -3.91974
rtoes 29.1379
lfemur -7.1552 747.951 -12.9073
ltibia 91.9685
lfoot 23.8936 470.896
ltoes -33.4367
284
root 18.2298 2.3265 0.342967 -1716.34 259.415 150.71
lowerback 40.3008 -3.14111 0.0651814
upperback 8.85323 -5.6193 -3.78719
thorax -9.94756 -3.18679 -1.61284
lowerneck 4.35631 2.74081 -2.67748
upperneck -3.4584 3.3976 -1.32179
head -1.84021 1.74638 -0.0601179
rclavicle -7.15625e-015 -9.79511e-014
rhumerus -389.597 31.4766 289.154
rradius 94.192
rwrist -2.01648
rhand -45.7572 758.305
rfingers 7.12502
rthumb -18.5122 729.166
lclavicle -7.15625e-015 -9.79511e-014
lhumerus -537.683 186.423 -492.299
lradius 109.432
lwrist 19.4577
lhand -27.2391 -735.234
lfingers 7.12502
lthumb -0.651057 14.7448
rfemur -584.4 -175.55 549.333
rtibia 74.0409
rfoot -0.429964 -3.97699
rtoes 29.575
lfemur -7.22669 748.179 -12.7437
ltibia 92.2698
lfoot 24.2179 470.792
ltoes -33.6124
285
root 18.2367 2.32366 0.348203 -1715.99 259.347 150.39
lowerback 40.252 -3.10968 -0.00735117
upperback 8.77342 -5.60291 -3.80213
thorax -10.0179 -3.17127 -1.59768
lowerneck 3.79607 2.76382 -2.77858
upperneck -3.50402 3.44301 -1.21489
head -1.75945 1.76532 -0.00309457
rclavicle -2.14687e-014 -1.39149e-015
rhumerus -388.18 31.1992 290.562
rradius 95.8288
rwrist -1.97279
rhand -45.8914 758.796
rfingers 7.12502
rthumb -18.6412 729.669
lclavicle -2.14687e-014 -1.39149e-015
lhumerus -536.679 185.874 -492.988
lradius 110.94
lwrist 19.9292
lhand -27.5698 -735.667
lfingers 7.12502
lthumb -0.970388 14.3107
rfemur -584.465 -175.366 549.307
rtibia 74.0253
rfoot -0.510426 -3.8836
rtoes 29.6448
lfemur -7.27527 748.397 -12.5594
ltibia 92.551
lfoot 24.8924 470.705
ltoes -33.6617
286
root 18.2414 2.3203 0.353251 -1715.64 259.267 150.07
lowerback 40.1916 -3.08305 -0.0725649
upperback 8.68664 -5.58998 -3.82955
thorax -10.0947 -3.1566 -1.59836
lowerneck 3.31937 2.78563 -2.92615
upperneck -3.56621 3.48428 -1.0575
head -1.7015 1.78259 0.0759916
rclavicle -5.00937e-014 9.49694e-014
rhumerus -386.768 30.8767 291.941
rradius 97.3754
rwrist -1.9561
rhand -45.9857 759.452
rfingers 7.12502
rthumb -18.7319 730.334
lclavicle -5.00937e-014 9.49694e-014
lhumerus -535.649 185.253 -493.665
lradius 112.348
lwrist 20.3526
lhand -27.7493 -735.961
lfingers 7.12502
lthumb -1.14374 14.0159
rfemur -584.515 -175.151 549.286
rtibia 74.026
rfoot -0.567535 -3.7046
rtoes 29.4933
lfemur -7.33311 748.625 -12.3994
ltibia 92.8279
lfoot 25.7267 470.626
ltoes -33.7115
287
root 18.2447 2.31582 0.358915 -1715.44 259.204 149.904
lowerback 40.1069 -3.03676 -0.142234
upperback 8.62512 -5.55237 -3.84457
thorax -10.1321 -3.13202 -1.59621
lowerneck 2.79652 2.7962 -3.02907
upperneck -3.56082 3.5138 -0.963499
head -1.61177 1.79386 0.129334
rclavicle -5.08889e-014 -9.81499e-014
rhumerus -385.272 30.539 293.368
rradius 98.8111
rwrist -1.94656
rhand -46.1132 760.157
rfingers 7.12502
rthumb -18.8545 731.051
lclavicle -5.08889e-014 -9.81499e-014
lhumerus -534.551 184.513 -494.321
lradius 113.648
lwrist 20.7714
lhand -27.8238 -736.137
lfingers 7.12502
lthumb -1.21574 13.839
rfemur -584.541 -174.931 549.306
rtibia 74.0345
rfoot -0.600703 -3.45399
rtoes 29.1816
lfemur -7.39085 748.875 -12.213
ltibia 93.1103
lfoot 26.9143 470.574
ltoes -33.6178
288
root 18.2469 2.30994 0.364775 -1715.1 259.165 149.599
lowerback 40.0358 -3.01769 -0.174571
upperback 8.55184 -5.53451 -3.86164
thorax -10.1911 -3.1165 -1.60587
lowerneck 2.35081 2.81391 -3.15147
upperneck -3.59691 3.55006 -0.845866
head -1.55056 1.80921 0.191509
rclavicle -1.90833e-014 5.85421e-014
rhumerus -383.781 30.2097 294.759
rradius 100.15
rwrist -2.04132
rhand -46.2192 760.826
rfingers 7.12502
rthumb -18.9565 731.73
lclavicle -1.90833e-014 5.85421e-014
lhumerus -533.408 183.706 -494.992
lradius 114.814
lwrist 21.1134
lhand -27.8834 -736.192
lfingers 7.12502
lthumb -1.2733 13.7835
rfemur -584.537 -174.653 549.38
rtibia 74.0527
rfoot -0.592187 -3.18847
rtoes 28.6848
lfemur -7.4695 749.1 -12.0135
ltibia 93.3862
lfoot 27.9546 470.558
ltoes -33.6106
289
root 18.246 2.30365 0.370735 -1714.94 259.121 149.483
lowerback 39.9581 -2.98414 -0.202745
upperback 8.48037 -5.49758 -3.89436
thorax -10.2473 -3.0918 -1.64296
lowerneck 1.92641 2.81796 -3.24853
upperneck -3.5965 3.56954 -0.743333
head -1.48078 1.81615 0.245044
rclavicle 3.81667e-014 -7.60351e-014
rhumerus -382.32 29.8356 296.1
rradius 101.402
rwrist -2.12673
rhand -46.3524 761.324
rfingers 7.12502
rthumb -19.0846 732.24
lclavicle 3.81667e-014 -7.60351e-014
lhumerus -532.228 182.855 -495.657
lradius 115.863
lwrist 21.4478
lhand -27.9431 -736.1
lfingers 7.12502
lthumb -1.33098 13.8755
rfemur -584.533 -174.372 549.471
rtibia 74.1065
rfoot -0.532269 -2.92575
rtoes 28.3043
lfemur -7.50253 749.355 -11.8067
ltibia 93.626
lfoot 28.8148 470.518
ltoes -33.7024
290
root 18.2415 2.29747 0.376907 -1714.68 259.096 149.266
lowerback 39.8798 -2.95808 -0.218588
upperback 8.42376 -5.46404 -3.91074
thorax -10.2855 -3.07022 -1.66811
lowerneck 1.47778 2.80412 -3.32798
upperneck -3.57472 3.56537 -0.692459
head -1.39857 1.81157 0.280498
rclavicle 8.18993e-014 -1.24837e-013
rhumerus -380.813 29.4447 297.457
rradius 102.536
rwrist -2.25726
rhand -46.5191 761.588
rfingers 7.12502
rthumb -19.2449 732.52
lclavicle 8.18993e-014 -1.24837e-013
lhumerus -531.027 181.951 -496.258
lradius 116.778
lwrist 21.7547
lhand -28.0577 -736.08
lfingers 7.12502
lthumb -1.44165 13.8951
rfemur -584.494 -174.076 549.593
rtibia 74.1824
rfoot -0.477769 -2.69426
rtoes 28.1979
lfemur -7.50011 749.589 -11.581
ltibia 93.835
lfoot 29.2636 470.445
ltoes -33.8649
291
root 18.2367 2.28925 0.383245 -1714.45 259.054 149.084
lowerback 39.8029 -2.93306 -0.250412
upperback 8.3589 -5.43927 -3.93307
thorax -10.3332 -3.0521 -1.68725
lowerneck 1.00937 2.80348 -3.43857
upperneck -3.51931 3.58082 -0.616951
head -1.30432 1.8164 0.328754
rclavicle -1.43125e-014 5.56597e-014
rhumerus -379.293 29.0588 298.772
rradius 103.601
rwrist -2.45705
rhand -46.6451 761.672
rfingers 7.12502
rthumb -19.3661 732.616
lclavicle -1.43125e-014 5.56597e-014
lhumerus -529.838 181.007 -496.803
lradius 117.576
lwrist 21.9396
lhand -28.2309 -736.013
lfingers 7.12502
lthumb -1.60892 13.9609
rfemur -584.459 -173.737 549.709
rtibia 74.2966
rfoot -0.388671 -2.43588
rtoes 27.9891
lfemur -7.51957 749.838 -11.3858
ltibia 94.0253
lfoot 29.718 470.427
ltoes -33.9472
292
root 18.2334 2.27991 0.389495 -1714.36 259.051 149.059
lowerback 39.7221 -2.90108 -0.248061
upperback 8.28699 -5.38925 -3.94679
thorax -10.3882 -3.02191 -1.72562
lowerneck 0.606573 2.7901 -3.54396
upperneck -3.48595 3.5777 -0.538457
head -1.22858 1.81258 0.3762
rclavicle 2.78299e-014 1.81888e-014
rhumerus -377.847 28.6428 300.05
rradius 104.611
rwrist -2.60454
rhand -46.8064 761.557
rfingers 7.12502
rthumb -19.5211 732.517
lclavicle 2.78299e-014 1.81888e-014
lhumerus -528.684 180.11 -497.249
lradius 118.285
lwrist 22.0366
lhand -28.4914 -735.918
lfingers 7.12502
lthumb -1.86051 14.0541
rfemur -584.369 -173.44 549.878
rtibia 74.4267
rfoot -0.327142 -2.1607
rtoes 27.7699
lfemur -7.52623 750.108 -11.1397
ltibia 94.2059
lfoot 30.2379 470.455
ltoes -34.0332
293
root 18.2297 2.26772 0.395801 -1714.17 259.018 148.943
lowerback 39.651 -2.87159 -0.265019
upperback 8.19925 -5.35106 -3.96695
thorax -10.4639 -2.99599 -1.75493
lowerneck 0.210636 2.78112 -3.62749
upperneck -3.41364 3.58114 -0.488201
head -1.14117 1.81181 0.411272
rclavicle -4.6118e-014 1.20613e-013
rhumerus -376.51 28.1901 301.246
rradius 105.594
rwrist -2.7384
rhand -46.9556 761.231
rfingers 7.12502
rthumb -19.6646 732.205
lclavicle -4.6118e-014 1.20613e-013
lhumerus -527.591 179.199 -497.67
lradius 118.944
lwrist 22.1529
lhand -28.7783 -735.915
lfingers 7.12502
lthumb -2.13756 14.0538
rfemur -584.258 -173.114 550.008
rtibia 74.5985
rfoot -0.290656 -1.87038
rtoes 27.526
lfemur -7.56542 750.382 -10.9562
ltibia 94.3633
lfoot 30.5356 470.533
ltoes -34.0489
